<?xml version="1.0" standalone="no"?>
<!DOCTYPE svg PUBLIC "-//W3C//DTD SVG 20010904//EN"
 "http://www.w3.org/TR/2001/REC-SVG-20010904/DTD/svg10.dtd">
<svg version="1.0" xmlns="http://www.w3.org/2000/svg"
 width="512.000000pt" height="512.000000pt" viewBox="0 0 512.000000 512.000000"
 preserveAspectRatio="xMidYMid meet">

<g transform="translate(0.000000,512.000000) scale(0.100000,-0.100000)"
fill="#000000" stroke="none">
<path d="M3858 4874 c-96 -17 -155 -39 -402 -153 -110 -50 -201 -89 -204 -86
-3 3 4 29 16 58 12 29 22 56 22 60 0 13 -113 -43 -194 -97 -181 -121 -322
-306 -414 -541 -22 -55 -43 -109 -47 -120 -7 -16 -11 -8 -18 35 -26 157 -48
248 -69 289 -36 68 -48 64 -48 -16 0 -60 -12 -106 -23 -93 -2 3 -25 46 -51 95
-26 50 -66 114 -89 144 -99 129 -304 232 -458 231 l-54 -1 57 -53 c32 -29 58
-58 58 -65 0 -15 1 -15 -65 14 -189 84 -432 100 -650 45 -81 -21 -276 -108
-289 -129 -5 -8 17 -11 78 -11 224 0 438 -94 612 -268 71 -71 76 -77 53 -80
-14 -2 -51 1 -82 6 -31 5 -57 6 -56 3 0 -3 32 -31 70 -61 85 -67 207 -192 191
-198 -6 -2 -51 13 -99 32 -138 55 -244 69 -463 63 -151 -5 -214 -11 -345 -37
-138 -27 -172 -30 -250 -24 -49 3 -87 3 -82 -2 4 -4 39 -26 78 -49 l70 -42
-124 -61 c-94 -46 -137 -74 -180 -116 -31 -31 -57 -60 -57 -65 0 -5 33 -2 72
5 40 8 79 12 87 9 9 -4 -5 -25 -43 -66 -100 -107 -158 -204 -202 -335 -29 -87
-55 -214 -44 -214 4 0 51 36 105 79 92 75 180 130 233 146 21 6 18 -2 -27 -69
-37 -54 -48 -78 -38 -81 7 -3 118 37 247 90 128 52 238 95 243 95 5 0 6 -12 3
-26 -5 -20 -4 -25 6 -21 7 3 98 41 202 83 178 72 194 77 280 82 50 2 107 0
125 -5 l35 -9 -106 -63 c-112 -67 -198 -134 -243 -188 l-27 -33 38 0 38 0
-131 -127 c-112 -110 -136 -139 -168 -205 -20 -42 -36 -81 -34 -87 2 -6 27 4
56 24 49 33 80 45 71 28 -55 -108 -75 -177 -84 -289 -7 -85 14 -540 25 -561
11 -21 79 44 110 106 16 31 45 103 66 161 46 130 83 200 137 264 41 48 43 49
49 25 4 -13 7 -40 8 -59 l1 -35 34 50 c44 66 92 109 221 195 59 39 124 88 146
107 22 20 43 33 46 29 4 -3 -1 -29 -11 -57 -10 -27 -16 -53 -13 -56 11 -10 88
59 136 123 27 35 61 88 77 119 16 30 32 55 37 55 4 0 7 -38 7 -85 0 -47 2 -85
5 -85 3 0 35 19 71 41 36 23 67 40 69 37 2 -2 -12 -53 -31 -113 -193 -608
-201 -1124 -23 -1650 99 -293 323 -679 439 -757 41 -27 51 -29 111 -26 54 3
83 12 152 46 161 80 176 109 110 221 -57 96 -93 131 -136 131 -44 0 -65 27
-47 60 16 30 8 47 -80 173 -103 147 -123 169 -158 167 -55 -4 -92 0 -92 10 0
5 14 22 30 37 40 36 39 57 -15 199 -25 65 -50 136 -55 156 -14 50 -34 68 -77
68 -34 0 -35 1 -29 32 18 94 18 128 -4 219 -24 107 -40 136 -75 145 -31 8 -32
22 -2 33 41 16 50 38 59 144 16 192 54 377 108 514 28 73 150 304 160 302 3
-1 39 -38 80 -83 50 -54 91 -112 121 -170 l46 -88 32 104 c18 56 35 114 40
127 7 23 8 22 47 -25 105 -127 160 -247 171 -375 3 -38 10 -69 14 -69 5 0 16
11 25 25 9 14 20 25 24 25 4 0 24 -39 46 -87 21 -49 71 -137 112 -197 94 -138
128 -206 150 -297 l18 -74 28 47 c42 72 48 102 55 268 l6 155 35 -47 c19 -26
38 -47 41 -48 13 0 32 152 26 209 -7 66 -37 160 -74 235 -14 27 -38 112 -54
190 -35 163 -63 228 -147 346 -34 46 -59 86 -57 88 13 13 121 -55 191 -121 84
-79 94 -82 94 -22 0 63 10 58 139 -69 69 -68 150 -145 180 -170 49 -41 59 -45
100 -43 l45 2 88 -120 c48 -66 89 -124 92 -130 2 -5 15 1 30 14 14 14 28 23
30 20 2 -2 24 -67 50 -144 25 -77 50 -146 55 -153 13 -22 31 41 38 134 6 90
-5 176 -43 308 -14 48 -23 91 -20 94 3 2 21 -7 40 -22 19 -14 37 -26 39 -26
10 0 -16 89 -43 147 -41 89 -82 146 -179 246 l-84 87 60 0 c33 0 62 3 66 6 9
10 -45 83 -100 135 -55 53 -105 87 -226 157 -95 55 -277 182 -277 193 0 28
334 32 460 5 72 -15 204 -54 274 -82 17 -7 17 -6 1 25 -16 33 -16 33 7 26 123
-38 262 -121 348 -209 24 -25 47 -46 51 -46 18 0 -26 148 -62 210 -73 124
-158 196 -324 276 -62 29 -103 54 -95 57 8 3 30 9 49 14 l35 8 -70 32 c-125
58 -180 68 -374 68 -96 0 -203 -4 -237 -8 -44 -6 -63 -5 -63 3 0 6 28 24 63
41 l62 29 -95 -4 c-123 -7 -234 -36 -343 -90 -48 -24 -90 -39 -93 -34 -6 9 7
25 224 273 77 88 139 161 137 163 -2 2 -49 -14 -104 -36 -56 -22 -101 -37
-101 -34 0 17 123 162 199 234 106 101 211 175 349 245 l105 53 -114 -1 c-63
0 -148 -7 -191 -15z"/>
</g>
</svg>
