<?xml version="1.0" standalone="no"?>
<!DOCTYPE svg PUBLIC "-//W3C//DTD SVG 20010904//EN"
 "http://www.w3.org/TR/2001/REC-SVG-20010904/DTD/svg10.dtd">
<svg version="1.0" xmlns="http://www.w3.org/2000/svg"
 width="1280.000000pt" height="1280.000000pt" viewBox="0 0 1280.000000 1280.000000"
 preserveAspectRatio="xMidYMid meet">
<metadata>
Created by potrace 1.15, written by Peter Selinger 2001-2017
</metadata>
<g transform="translate(0.000000,1280.000000) scale(0.100000,-0.100000)"
fill="#000000" stroke="none">
<path d="M6670 11781 c-579 -171 -965 -475 -1089 -859 -30 -94 -45 -222 -37
-339 16 -272 108 -488 274 -645 65 -61 110 -93 367 -260 81 -53 218 -163 180
-145 -6 3 -9 -25 -6 -79 4 -108 -19 -211 -69 -312 -47 -94 -93 -149 -162 -193
-45 -29 -61 -34 -123 -35 -38 -1 -76 3 -82 8 -7 6 -13 7 -13 2 0 -5 -27 40
-61 100 -160 289 -346 498 -506 570 -23 10 -40 23 -37 27 3 5 -1 6 -9 4 -7 -3
-29 1 -48 9 -19 8 -27 15 -19 16 10 0 9 4 -5 14 -142 99 -385 146 -598 116
-135 -19 -222 -36 -338 -65 -52 -13 -69 -22 -78 -41 l-11 -24 103 -2 102 -2
-85 -4 c-87 -3 -204 14 -194 29 3 5 -2 6 -10 3 -23 -9 -98 39 -145 92 -236
269 -234 772 8 1368 32 80 55 146 51 146 -11 0 -175 -177 -245 -265 -187 -233
-317 -495 -361 -730 -22 -118 -15 -307 16 -414 82 -289 327 -569 581 -665 111
-42 204 -56 432 -66 304 -14 403 -38 502 -123 38 -33 127 -146 94 -120 -14 12
-15 7 -7 -40 20 -120 -23 -280 -94 -346 -63 -59 -157 -75 -272 -45 -63 16
-221 82 -337 140 -83 42 -201 88 -299 116 -109 32 -314 32 -420 -1 -110 -33
-316 -137 -340 -171 -3 -4 -12 -11 -21 -16 -20 -11 -113 -89 -152 -126 -16
-16 -31 -28 -34 -28 -4 0 -30 -26 -60 -57 -58 -64 -66 -96 -23 -102 14 -1 27
-7 30 -12 3 -5 23 3 43 17 20 13 37 23 37 20 0 -12 -91 -66 -102 -60 -6 4 -8
3 -5 -3 9 -15 -98 -70 -174 -89 -89 -23 -169 -14 -261 29 -253 117 -446 409
-559 845 -33 127 -64 301 -75 410 -4 40 -10 70 -14 65 -22 -24 -75 -280 -95
-456 -19 -168 -19 -276 0 -424 38 -295 152 -523 342 -685 182 -155 465 -256
688 -245 158 8 232 32 500 166 132 66 264 127 294 136 179 50 374 -17 536
-186 33 -34 55 -59 49 -56 -7 4 -15 -17 -22 -55 -30 -161 -158 -218 -557 -248
-77 -6 -167 -15 -200 -21 -253 -45 -426 -142 -570 -320 -23 -29 -115 -167
-115 -173 0 -3 -16 -39 -35 -80 -19 -42 -35 -82 -35 -89 0 -8 -3 -17 -7 -21
-4 -3 -8 -12 -9 -19 -1 -7 -14 -46 -28 -87 -15 -41 -31 -89 -36 -106 -25 -78
4 -122 35 -53 10 22 20 38 22 36 7 -8 -54 -127 -62 -120 -4 4 -5 2 -1 -5 12
-20 -74 -169 -136 -237 -83 -90 -149 -118 -293 -123 -88 -3 -127 0 -194 17
-296 74 -634 339 -923 722 -38 50 -68 85 -68 79 0 -28 45 -183 82 -285 153
-416 393 -726 673 -867 73 -37 200 -75 296 -88 208 -29 501 32 664 139 139 91
218 182 365 420 140 227 227 312 360 357 78 27 256 25 363 -4 67 -19 278 -111
220 -96 -18 4 -23 1 -23 -16 0 -51 -88 -162 -186 -236 -22 -16 -41 -31 -44
-34 -3 -3 -25 -19 -50 -35 -40 -27 -148 -102 -175 -122 -6 -5 -28 -21 -50 -38
-79 -58 -134 -115 -234 -241 -27 -34 -93 -189 -106 -249 -18 -83 -30 -284 -15
-245 9 23 9 23 4 -5 -17 -89 -15 -326 2 -494 11 -97 19 -246 19 -331 -1 -139
-3 -161 -25 -215 -64 -165 -287 -287 -550 -304 -280 -18 -611 50 -957 195 -57
23 -103 39 -103 34 0 -5 44 -49 97 -98 288 -266 545 -418 827 -490 87 -22 122
-26 251 -25 134 0 160 3 240 27 297 90 554 315 658 576 42 107 57 202 67 433
15 321 40 416 141 522 119 126 294 194 542 211 l107 7 0 -45 c0 -74 -32 -164
-148 -408 -105 -222 -131 -313 -139 -476 -4 -85 -2 -123 6 -128 6 -4 11 -15
10 -24 0 -15 -1 -14 -8 2 -4 10 -6 -53 -6 -140 2 -129 6 -173 23 -236 44 -155
113 -279 293 -528 196 -270 232 -345 233 -486 1 -87 -1 -94 -41 -175 -23 -46
-63 -110 -88 -141 -94 -118 -283 -244 -480 -322 -188 -74 -481 -144 -679 -161
-93 -9 -87 -14 49 -49 516 -130 984 -82 1280 129 113 81 233 221 294 343 72
142 121 334 121 469 -1 162 -46 297 -189 568 -97 183 -122 255 -129 361 -7
126 32 231 135 367 77 100 239 221 400 298 74 35 117 51 86 31 -10 -6 -10 -17
-2 -46 16 -59 19 -74 29 -166 9 -78 38 -373 41 -416 1 -11 5 -1 9 21 5 30 8
17 9 -55 2 -158 28 -350 63 -460 11 -36 38 -99 60 -141 107 -208 270 -331 683
-514 266 -117 377 -199 431 -318 24 -53 29 -78 32 -168 5 -120 -10 -204 -58
-328 -96 -248 -348 -543 -672 -786 -54 -41 -92 -75 -85 -75 26 0 189 50 302
92 253 94 470 224 627 376 190 184 282 363 310 603 24 203 -31 465 -133 635
-79 131 -196 233 -448 390 -227 141 -313 239 -347 397 -46 215 46 499 250 770
82 109 77 108 136 48 27 -28 50 -45 50 -38 1 6 16 -38 35 -100 80 -259 183
-463 333 -661 176 -230 345 -334 607 -372 107 -15 177 -13 475 17 245 24 283
25 360 14 118 -17 188 -51 255 -123 240 -258 238 -768 -3 -1371 -32 -81 -55
-147 -51 -147 4 0 48 44 97 98 263 284 414 538 489 821 22 82 26 118 26 246 1
164 -8 216 -66 360 -59 150 -204 338 -341 442 -78 59 -203 118 -303 143 -92
22 -262 39 -423 42 l-115 2 85 6 c47 3 76 7 66 8 -10 1 -74 29 -142 62 -67 33
-127 60 -132 60 -13 0 -159 80 -217 119 -27 19 -61 46 -74 60 -15 17 -22 20
-18 8 18 -47 15 -47 -8 1 -67 142 -96 353 -77 557 13 138 41 305 51 305 3 0
53 -50 110 -110 185 -198 364 -332 596 -446 204 -100 292 -125 455 -131 116
-5 149 -2 220 15 132 33 298 122 511 276 295 211 384 256 513 256 191 0 401
-163 551 -425 116 -204 224 -579 250 -869 9 -93 14 -87 49 49 137 547 78 1028
-166 1331 -124 154 -294 261 -528 333 -76 23 -101 25 -245 25 -154 0 -164 -1
-253 -32 -52 -18 -99 -29 -104 -25 -6 3 -8 2 -5 -4 3 -5 -33 -28 -79 -51 -47
-24 -83 -39 -80 -34 3 5 23 17 45 26 88 40 7 62 -164 45 -172 -18 -430 -20
-500 -4 -142 32 -276 93 -330 150 -5 6 -21 19 -34 30 l-24 20 12 -25 c12 -24
11 -24 -4 -5 -8 11 -13 25 -11 32 3 7 0 15 -6 19 -7 4 -8 3 -4 -4 4 -7 5 -12
2 -12 -10 0 -97 180 -132 273 -32 85 -33 91 -18 108 13 14 14 19 4 19 -7 0
-11 2 -9 5 3 2 39 -7 79 -21 218 -73 408 -104 650 -104 441 0 687 97 872 344
78 104 124 189 233 431 99 221 148 306 215 375 199 204 609 131 976 -175 148
-123 310 -297 433 -463 33 -46 61 -77 61 -69 0 26 -49 188 -92 302 -80 217
-199 426 -324 575 -283 337 -684 450 -1104 314 -186 -61 -296 -142 -453 -334
-25 -31 -25 -30 3 10 17 25 26 46 21 48 -17 6 -96 -38 -176 -99 -215 -162
-357 -237 -513 -268 -137 -28 -319 -4 -441 59 -65 33 -90 51 -139 103 -19 20
-45 37 -56 38 -12 0 13 9 54 20 187 50 437 163 595 268 307 204 438 385 480
661 21 133 19 197 -12 510 -26 263 -26 279 -11 365 8 49 25 112 38 138 66 140
270 251 510 277 270 30 631 -43 1008 -203 45 -19 82 -31 82 -27 0 11 -174 171
-260 241 -170 136 -410 271 -575 323 -137 43 -185 51 -340 51 -175 0 -240 -14
-381 -80 -119 -55 -199 -111 -297 -204 -173 -165 -252 -326 -282 -568 -9 -75
-13 -94 -15 -63 -2 43 -2 44 -10 13 -10 -45 -50 -131 -105 -228 -29 -52 -152
-205 -163 -205 -4 0 -20 -13 -37 -28 -55 -52 -191 -123 -262 -137 -89 -18
-165 -25 -218 -20 -81 9 -135 23 -135 37 0 6 -10 3 -22 -8 -13 -10 -5 1 17 26
221 247 405 613 435 860 18 153 -17 322 -99 483 -46 89 -107 182 -234 356
-203 278 -250 414 -196 574 71 212 279 395 594 522 176 71 479 142 679 160 97
9 88 15 -76 55 -326 78 -613 88 -879 30 -353 -76 -616 -311 -734 -655 -37
-108 -46 -154 -52 -270 -9 -194 25 -321 154 -564 36 -68 61 -121 56 -118 -6 4
-11 -13 -11 -39 -4 -84 -47 -217 -103 -314 -19 -34 -111 -150 -118 -150 -3 0
-20 -13 -37 -29 -36 -34 -148 -93 -210 -111 -22 -7 -64 -11 -92 -9 -29 2 -53
0 -55 -6 -2 -5 -2 -1 0 10 3 11 7 124 10 250 9 387 -33 574 -173 771 -79 111
-197 205 -377 299 -53 28 -94 55 -90 60 5 4 3 5 -4 2 -14 -8 -45 2 -38 13 7
11 -72 43 -86 35 -7 -5 -10 -4 -5 3 6 10 -75 62 -98 62 -6 0 -39 13 -73 30
-89 41 -78 28 15 -19 42 -22 74 -40 69 -41 -18 -1 -167 82 -162 90 4 6 -1 7
-11 3 -13 -5 -15 -3 -9 7 5 8 4 11 -2 7 -28 -18 -142 97 -182 183 -34 74 -42
232 -16 347 67 300 340 652 733 942 47 34 76 61 65 60 -10 0 -61 -13 -113 -28z
m-240 -1631 c8 -5 11 -10 5 -10 -5 0 -17 5 -25 10 -8 5 -10 10 -5 10 6 0 17
-5 25 -10z m80 -35 c14 -8 21 -14 15 -14 -5 0 -21 6 -35 14 -14 8 -20 14 -15
14 6 0 21 -6 35 -14z m-586 -1221 c3 -8 2 -12 -4 -9 -6 3 -10 10 -10 16 0 14
7 11 14 -7z m-2754 -598 c0 -2 -8 -10 -17 -17 -16 -13 -17 -12 -4 4 13 16 21
21 21 13z m6630 -1486 c-6 -11 -13 -20 -16 -20 -2 0 0 9 6 20 6 11 13 20 16
20 2 0 0 -9 -6 -20z m-7117 -325 c-3 -9 -8 -14 -10 -11 -3 3 -2 9 2 15 9 16
15 13 8 -4z m5594 -807 c-3 -7 -5 -2 -5 12 0 14 2 19 5 13 2 -7 2 -19 0 -25z
m1133 -693 c0 -2 -10 -9 -22 -15 -22 -11 -22 -10 -4 4 21 17 26 19 26 11z
m-3843 -1047 c-3 -8 -6 -5 -6 6 -1 11 2 17 5 13 3 -3 4 -12 1 -19z m2550 -254
c-3 -3 -12 -4 -19 -1 -8 3 -5 6 6 6 11 1 17 -2 13 -5z"/>
<path d="M4158 9668 c6 -6 18 -8 28 -6 14 3 12 5 -9 10 -19 3 -25 2 -19 -4z"/>
<path d="M9884 6948 l-19 -23 23 19 c21 18 27 26 19 26 -2 0 -12 -10 -23 -22z"/>
<path d="M3111 5104 c0 -11 3 -14 6 -6 3 7 2 16 -1 19 -3 4 -6 -2 -5 -13z"/>
<path d="M9560 5080 c-8 -5 -10 -10 -5 -10 6 0 17 5 25 10 8 5 11 10 5 10 -5
0 -17 -5 -25 -10z"/>
</g>
</svg>
